<?xml version="1.0" standalone="no"?><!DOCTYPE svg PUBLIC "-//W3C//DTD SVG 1.1//EN" "http://www.w3.org/Graphics/SVG/1.1/DTD/svg11.dtd"><svg t="1611578275607" class="icon" viewBox="0 0 1024 1024" version="1.1" xmlns="http://www.w3.org/2000/svg" p-id="6516" xmlns:xlink="http://www.w3.org/1999/xlink" width="48" height="48"><defs><style type="text/css"></style></defs><path d="M511.8 613c-153.8 0-279-125.2-279-279S358 55 511.8 55s279 125.2 279 279c0 153.9-125.2 279-279 279z m0-508c-126.3 0-229 102.7-229 229s102.7 229 229 229 229-102.7 229-229-102.8-229-229-229z" p-id="6517"></path><path d="M878.1 985.6H145.4c-27.6 0-53.6-12.2-71.3-33.4-17.7-21.3-24.9-49.1-19.9-76.3 17.1-92.6 61.6-177.1 128.7-244.2 17.8-17.9 37.4-34.6 58.4-49.5 31.2-22.4 73.6-23.1 105.4-1.7 48.8 32.9 105.9 50.2 165 50.2 59 0 116.1-17.4 165-50.3 31.9-21.4 74.3-20.7 105.5 1.7 98.8 70.9 165.3 175.3 187.1 294 5 27.1-2.3 54.7-19.9 75.9-17.7 21.4-43.7 33.6-71.3 33.6zM295.3 614.9c-8.7 0-17.5 2.7-24.9 8-18.7 13.4-36.2 28.2-52.1 44.2-59.9 59.9-99.7 135.3-115 217.9-2.3 12.6 1 25.4 9.2 35.2 8.1 9.8 20.1 15.4 32.8 15.4H878c12.8 0 24.7-5.6 32.9-15.4 8.1-9.7 11.4-22.4 9.2-34.9-19.4-105.9-78.8-199.1-167-262.4-14.3-10.3-33.8-10.6-48.4-0.8-57.2 38.4-123.9 58.7-192.9 58.7-69.1 0-135.8-20.3-192.9-58.8-7.1-4.8-15.4-7.1-23.6-7.1z" p-id="6518"></path></svg>